<?xml version="1.0" encoding="UTF-8"?>
<svg xmlns="http://www.w3.org/2000/svg" xmlns:xlink="http://www.w3.org/1999/xlink" width="480pt" height="480pt" viewBox="0 0 480 480" version="1.1">
<g id="surface1">
<path style=" stroke:none;fill-rule:nonzero;fill:#98CCFD;fill-opacity:1;" d="M 282 378 L 282 150 L 411.132813 150 C 417.78125 150 423.863281 153.648438 426.996094 159.503906 L 469.019531 238.03125 C 472.273438 244.105469 474 250.957031 474 257.84375 L 474 378 Z "/>
<path style=" stroke:none;fill-rule:nonzero;fill:#4788C7;fill-opacity:1;" d="M 411.121094 156 C 415.546875 156 419.605469 158.425781 421.703125 162.335938 L 463.738281 240.863281 C 466.523438 246.070313 468 251.953125 468 257.855469 L 468 372 L 288 372 L 288 156 L 411.121094 156 M 411.121094 144 L 276 144 L 276 384 L 480 384 L 480 257.855469 C 480 249.949219 478.042969 242.171875 474.324219 235.199219 L 432.289063 156.671875 C 428.113281 148.871094 419.976563 144 411.121094 144 Z "/>
<path style=" stroke:none;fill-rule:nonzero;fill:#FFFFFF;fill-opacity:1;" d="M 372 180 C 358.738281 180 348 190.738281 348 204 L 348 228 C 348 241.261719 358.738281 252 372 252 L 384 252 L 408 276 L 480 276 L 480 257.855469 C 480 249.949219 478.042969 242.171875 474.324219 235.199219 L 444.769531 180 Z "/>
<path style=" stroke:none;fill-rule:nonzero;fill:#DFF0FE;fill-opacity:1;" d="M 6 78 L 282 78 L 282 378 L 6 378 Z "/>
<path style=" stroke:none;fill-rule:nonzero;fill:#4788C7;fill-opacity:1;" d="M 276 84 L 276 372 L 12 372 L 12 84 L 276 84 M 288 72 L 0 72 L 0 384 L 288 384 Z "/>
<path style=" stroke:none;fill-rule:nonzero;fill:#B6DCFE;fill-opacity:1;" d="M 162 384 C 162 407.195313 143.195313 426 120 426 C 96.804688 426 78 407.195313 78 384 C 78 360.804688 96.804688 342 120 342 C 143.195313 342 162 360.804688 162 384 Z "/>
<path style=" stroke:none;fill-rule:nonzero;fill:#4788C7;fill-opacity:1;" d="M 120 348 C 139.847656 348 156 364.152344 156 384 C 156 403.847656 139.847656 420 120 420 C 100.152344 420 84 403.847656 84 384 C 84 364.152344 100.152344 348 120 348 M 120 336 C 93.492188 336 72 357.492188 72 384 C 72 410.507813 93.492188 432 120 432 C 146.507813 432 168 410.507813 168 384 C 168 357.492188 146.507813 336 120 336 Z "/>
<path style=" stroke:none;fill-rule:nonzero;fill:#4788C7;fill-opacity:1;" d="M 411.121094 156 C 415.546875 156 419.605469 158.425781 421.703125 162.335938 L 463.738281 240.863281 C 466.523438 246.070313 468 251.953125 468 257.855469 L 468 372 L 288 372 L 288 156 L 411.121094 156 M 411.121094 144 L 276 144 L 276 384 L 480 384 L 480 257.855469 C 480 249.949219 478.042969 242.171875 474.324219 235.199219 L 432.289063 156.671875 C 428.113281 148.871094 419.976563 144 411.121094 144 Z "/>
<path style=" stroke:none;fill-rule:nonzero;fill:#B6DCFE;fill-opacity:1;" d="M 414 384 C 414 407.195313 395.195313 426 372 426 C 348.804688 426 330 407.195313 330 384 C 330 360.804688 348.804688 342 372 342 C 395.195313 342 414 360.804688 414 384 Z "/>
<path style=" stroke:none;fill-rule:nonzero;fill:#4788C7;fill-opacity:1;" d="M 372 348 C 391.847656 348 408 364.152344 408 384 C 408 403.847656 391.847656 420 372 420 C 352.152344 420 336 403.847656 336 384 C 336 364.152344 352.152344 348 372 348 M 372 336 C 345.492188 336 324 357.492188 324 384 C 324 410.507813 345.492188 432 372 432 C 398.507813 432 420 410.507813 420 384 C 420 357.492188 398.507813 336 372 336 Z "/>
<path style=" stroke:none;fill-rule:nonzero;fill:#FFFFFF;fill-opacity:1;" d="M 468 336 L 450 336 C 440.0625 336 432 327.9375 432 318 C 432 308.0625 440.0625 300 450 300 L 468 300 Z "/>
<path style="fill:none;stroke-width:3;stroke-linecap:butt;stroke-linejoin:miter;stroke:#4788C7;stroke-opacity:1;stroke-miterlimit:4;" d="M 5.333008 16.891927 L 10.442057 22 L 18.666992 13.775065 " transform="matrix(12,0,0,12,0,0)"/>
</g>
</svg>
