<?xml version="1.0" encoding="UTF-8"?>
<svg xmlns="http://www.w3.org/2000/svg" xmlns:xlink="http://www.w3.org/1999/xlink" width="512pt" height="512pt" viewBox="0 0 512 512" version="1.1">
<g id="surface1">
<path style=" stroke:none;fill-rule:nonzero;fill:#FFFFFF;fill-opacity:1;" d="M 36 256 C 36 377.601563 134.398438 476 256 476 C 377.601563 476 476 377.601563 476 256 C 476 134.398438 377.601563 36 256 36 C 230 36 204.800781 40.398438 181.601563 48.800781 C 96.800781 79.199219 36 160.398438 36 256 Z "/>
<path style=" stroke:none;fill-rule:nonzero;fill:#71C2FF;fill-opacity:1;" d="M 299.199219 292 C 293.199219 300.398438 307.601563 318 324.800781 330.800781 C 340 342 357.199219 350 366.398438 346 C 399.601563 330.398438 421.199219 298 421.199219 286 C 421.199219 274 405.601563 250.800781 352.398438 286.800781 C 337.601563 297.601563 310.800781 276 299.199219 292 Z "/>
<path style=" stroke:none;fill-rule:nonzero;fill:#71C2FF;fill-opacity:1;" d="M 471.601563 211.601563 C 456 136 401.601563 74.398438 330.398438 48.800781 C 330 48.800781 329.601563 48.398438 329.601563 48.398438 L 330.398438 90.800781 C 330.398438 101.601563 324 111.601563 314 116 C 292 125.601563 270 120.398438 260.800781 145.601563 C 253.199219 164.398438 273.199219 216 297.601563 216 C 328.398438 216 343.199219 154 352.398438 154 C 358.398438 154 367.601563 172.800781 378.398438 186.800781 C 385.601563 196.398438 396.800781 201.601563 408.800781 201.601563 L 429.199219 201.601563 Z "/>
<path style=" stroke:none;fill-rule:nonzero;fill:#71C2FF;fill-opacity:1;" d="M 176.800781 298 C 175.199219 283.199219 194.398438 272 206 260.398438 C 217.601563 248.800781 221.199219 230.800781 215.199219 220.398438 C 196 185.601563 150.398438 204 146 240.398438 C 145.199219 246.800781 143.601563 252.800781 141.601563 258.800781 "/>
<path style=" stroke:none;fill-rule:nonzero;fill:#71C2FF;fill-opacity:1;" d="M 133.601563 298.398438 C 130.800781 292.800781 123.601563 292 119.601563 296.398438 C 108.398438 307.601563 86.398438 301.601563 80.398438 285.199219 C 73.601563 266.800781 97.199219 260 93.601563 236.398438 C 92.800781 230 86 226.800781 77.601563 225.601563 L 38 227.199219 C 36.800781 236.398438 36 246 36 256 C 36 305.199219 52 350.398438 79.601563 387.199219 C 79.601563 387.199219 111.199219 416.800781 110.800781 421.199219 C 126 434.398438 148 437.199219 165.601563 427.601563 C 173.199219 423.601563 180.800781 418.398438 189.601563 412.800781 C 192.398438 410.800781 194.800781 408.800781 196.800781 406.398438 C 200 403.199219 200 398 197.199219 394.398438 C 196 392.800781 194.398438 391.199219 193.199219 389.601563 C 167.601563 359.601563 148 328 133.601563 298.398438 Z "/>
<path style=" stroke:none;fill-rule:nonzero;fill:#444B54;fill-opacity:1;" d="M 391.601563 490.398438 C 343.199219 490.398438 273.601563 446.800781 211.199219 373.601563 C 151.199219 303.199219 126.398438 221.199219 118.398438 189.199219 C 116.800781 182.800781 120.800781 176.398438 127.199219 174.800781 C 133.601563 173.199219 140 177.199219 141.601563 183.601563 C 147.601563 207.199219 170.800781 290 229.601563 358.800781 C 305.601563 448 386.398438 483.199219 414 460 C 425.601563 450.398438 428.800781 429.601563 422.800781 401.601563 L 420.398438 390 C 419.199219 383.601563 423.199219 377.199219 430 376 C 436.398438 374.800781 442.800781 378.800781 444 385.601563 L 446 396.800781 C 454 434 448 462.398438 429.199219 478 C 419.199219 486.398438 406.398438 490.398438 391.601563 490.398438 Z "/>
<path style=" stroke:none;fill-rule:nonzero;fill:#444B54;fill-opacity:1;" d="M 112.800781 162 C 109.601563 162 106.800781 160.800781 104.398438 158.398438 C 99.601563 153.601563 99.601563 146 104.398438 141.601563 L 110.800781 135.199219 L 110.800781 24 C 110.800781 17.199219 116 12 122.800781 12 C 129.601563 12 134.800781 17.199219 134.800781 24 L 134.800781 140 C 134.800781 143.199219 133.601563 146.398438 131.199219 148.398438 L 121.199219 158.398438 C 119.199219 160.800781 116 162 112.800781 162 Z "/>
<path style=" stroke:none;fill-rule:nonzero;fill:#444B54;fill-opacity:1;" d="M 82.800781 132 C 79.601563 132 76.800781 130.800781 74.398438 128.398438 C 69.601563 123.601563 69.601563 116 74.398438 111.601563 L 114.398438 71.601563 C 119.199219 66.800781 126.800781 66.800781 131.199219 71.601563 C 136 76.398438 136 84 131.199219 88.398438 L 91.199219 128.398438 C 89.199219 130.800781 86 132 82.800781 132 Z "/>
<path style=" stroke:none;fill-rule:nonzero;fill:#444B54;fill-opacity:1;" d="M 162.800781 132 C 159.601563 132 156.800781 130.800781 154.398438 128.398438 L 114.398438 88.398438 C 109.601563 83.601563 109.601563 76 114.398438 71.601563 C 119.199219 66.800781 126.800781 66.800781 131.199219 71.601563 L 171.199219 111.601563 C 176 116.398438 176 124 171.199219 128.398438 C 169.199219 130.800781 166 132 162.800781 132 Z "/>
<path style=" stroke:none;fill-rule:nonzero;fill:#444B54;fill-opacity:1;" d="M 256 488 C 128 488 24 384 24 256 C 24 220.800781 31.601563 187.199219 46.800781 155.601563 C 49.601563 149.601563 56.800781 147.199219 62.800781 150 C 68.800781 152.800781 71.199219 160 68.398438 166 C 54.800781 194 48 224.398438 48 256 C 48 370.800781 141.199219 464 256 464 C 262.800781 464 268 469.199219 268 476 C 268 482.800781 262.800781 488 256 488 Z "/>
<path style=" stroke:none;fill-rule:nonzero;fill:#444B54;fill-opacity:1;" d="M 388.800781 443.601563 C 385.199219 443.601563 381.601563 442 379.199219 438.800781 C 375.199219 433.601563 376.398438 426 381.601563 422 C 434 382.398438 464 321.601563 464 256 C 464 141.199219 370.800781 48 256 48 C 232 48 208.398438 52 185.601563 60 C 179.199219 62.398438 172.398438 58.800781 170.398438 52.800781 C 168 46.398438 171.601563 39.601563 177.601563 37.601563 C 202.800781 28.398438 229.199219 24 256 24 C 384 24 488 128 488 256 C 488 329.199219 454.398438 396.800781 396 441.199219 C 393.601563 442.800781 391.199219 443.601563 388.800781 443.601563 Z "/>
</g>
</svg>
