<?xml version="1.0" encoding="UTF-8"?>
<svg xmlns="http://www.w3.org/2000/svg" xmlns:xlink="http://www.w3.org/1999/xlink" width="512pt" height="512pt" viewBox="0 0 512 512" version="1.1">
<g id="surface1">
<path style=" stroke:none;fill-rule:nonzero;fill:#F283A5;fill-opacity:1;" d="M 320 184 C 320 153.070313 294.929688 128 264 128 C 233.070313 128 208 153.070313 208 184 C 208 214.929688 264 296 264 296 C 264 296 320 214.929688 320 184 Z "/>
<path style=" stroke:none;fill-rule:nonzero;fill:#8D6C9F;fill-opacity:1;" d="M 264 304 C 261.367188 304 258.910156 302.710938 257.414063 300.542969 C 251.535156 292.039063 200 216.488281 200 184 C 200 148.710938 228.710938 120 264 120 C 299.289063 120 328 148.710938 328 184 C 328 216.488281 276.464844 292.039063 270.585938 300.542969 C 269.089844 302.710938 266.632813 304 264 304 Z M 264 136 C 237.527344 136 216 157.527344 216 184 C 216 204.457031 246.304688 254.777344 264 281.664063 C 281.695313 254.769531 312 204.441406 312 184 C 312 157.527344 290.472656 136 264 136 Z "/>
<path style=" stroke:none;fill-rule:nonzero;fill:#FFF8EE;fill-opacity:1;" d="M 288 184 C 288 197.253906 277.253906 208 264 208 C 250.746094 208 240 197.253906 240 184 C 240 170.746094 250.746094 160 264 160 C 277.253906 160 288 170.746094 288 184 Z "/>
<path style=" stroke:none;fill-rule:nonzero;fill:#8D6C9F;fill-opacity:1;" d="M 264 216 C 246.351563 216 232 201.648438 232 184 C 232 166.351563 246.351563 152 264 152 C 281.648438 152 296 166.351563 296 184 C 296 201.648438 281.648438 216 264 216 Z M 264 168 C 255.175781 168 248 175.175781 248 184 C 248 192.824219 255.175781 200 264 200 C 272.824219 200 280 192.824219 280 184 C 280 175.175781 272.824219 168 264 168 Z "/>
<path style=" stroke:none;fill-rule:nonzero;fill:#FFF8EE;fill-opacity:1;" d="M 88 64 C 88 77.253906 77.253906 88 64 88 C 50.746094 88 40 77.253906 40 64 C 40 50.746094 50.746094 40 64 40 C 77.253906 40 88 50.746094 88 64 Z "/>
<path style=" stroke:none;fill-rule:nonzero;fill:#8D6C9F;fill-opacity:1;" d="M 64 96 C 46.351563 96 32 81.648438 32 64 C 32 46.351563 46.351563 32 64 32 C 81.648438 32 96 46.351563 96 64 C 96 81.648438 81.648438 96 64 96 Z M 64 48 C 55.175781 48 48 55.175781 48 64 C 48 72.824219 55.175781 80 64 80 C 72.824219 80 80 72.824219 80 64 C 80 55.175781 72.824219 48 64 48 Z "/>
<path style=" stroke:none;fill-rule:nonzero;fill:#FFF8EE;fill-opacity:1;" d="M 456 216 C 456 229.253906 445.253906 240 432 240 C 418.746094 240 408 229.253906 408 216 C 408 202.746094 418.746094 192 432 192 C 445.253906 192 456 202.746094 456 216 Z "/>
<path style=" stroke:none;fill-rule:nonzero;fill:#8D6C9F;fill-opacity:1;" d="M 432 248 C 414.351563 248 400 233.648438 400 216 C 400 198.351563 414.351563 184 432 184 C 449.648438 184 464 198.351563 464 216 C 464 233.648438 449.648438 248 432 248 Z M 432 200 C 423.175781 200 416 207.175781 416 216 C 416 224.824219 423.175781 232 432 232 C 440.824219 232 448 224.824219 448 216 C 448 207.175781 440.824219 200 432 200 Z "/>
<path style=" stroke:none;fill-rule:nonzero;fill:#FFF8EE;fill-opacity:1;" d="M 472 448 C 472 461.253906 461.253906 472 448 472 C 434.746094 472 424 461.253906 424 448 C 424 434.746094 434.746094 424 448 424 C 461.253906 424 472 434.746094 472 448 Z "/>
<path style=" stroke:none;fill-rule:nonzero;fill:#8D6C9F;fill-opacity:1;" d="M 448 480 C 430.351563 480 416 465.648438 416 448 C 416 430.351563 430.351563 416 448 416 C 465.648438 416 480 430.351563 480 448 C 480 465.648438 465.648438 480 448 480 Z M 448 432 C 439.175781 432 432 439.175781 432 448 C 432 456.824219 439.175781 464 448 464 C 456.824219 464 464 456.824219 464 448 C 464 439.175781 456.824219 432 448 432 Z "/>
<path style=" stroke:none;fill-rule:nonzero;fill:#8D6C9F;fill-opacity:1;" d="M 384 464 C 379.585938 464 376 460.414063 376 456 L 376 440 C 376 435.585938 379.585938 432 384 432 C 388.414063 432 392 435.585938 392 440 L 392 456 C 392 460.414063 388.414063 464 384 464 Z "/>
<path style=" stroke:none;fill-rule:nonzero;fill:#8D6C9F;fill-opacity:1;" d="M 344 464 C 339.585938 464 336 460.414063 336 456 L 336 440 C 336 435.585938 339.585938 432 344 432 C 348.414063 432 352 435.585938 352 440 L 352 456 C 352 460.414063 348.414063 464 344 464 Z "/>
<path style=" stroke:none;fill-rule:nonzero;fill:#8D6C9F;fill-opacity:1;" d="M 304 464 C 299.585938 464 296 460.414063 296 456 L 296 440 C 296 435.585938 299.585938 432 304 432 C 308.414063 432 312 435.585938 312 440 L 312 456 C 312 460.414063 308.414063 464 304 464 Z "/>
<path style=" stroke:none;fill-rule:nonzero;fill:#8D6C9F;fill-opacity:1;" d="M 264 464 C 259.585938 464 256 460.414063 256 456 L 256 440 C 256 435.585938 259.585938 432 264 432 C 268.414063 432 272 435.585938 272 440 L 272 456 C 272 460.414063 268.414063 464 264 464 Z "/>
<path style=" stroke:none;fill-rule:nonzero;fill:#8D6C9F;fill-opacity:1;" d="M 224 464 C 219.585938 464 216 460.414063 216 456 L 216 440 C 216 435.585938 219.585938 432 224 432 C 228.414063 432 232 435.585938 232 440 L 232 456 C 232 460.414063 228.414063 464 224 464 Z "/>
<path style=" stroke:none;fill-rule:nonzero;fill:#8D6C9F;fill-opacity:1;" d="M 184 464 C 179.585938 464 176 460.414063 176 456 L 176 440 C 176 435.585938 179.585938 432 184 432 C 188.414063 432 192 435.585938 192 440 L 192 456 C 192 460.414063 188.414063 464 184 464 Z "/>
<path style=" stroke:none;fill-rule:nonzero;fill:#8D6C9F;fill-opacity:1;" d="M 144 464 C 139.585938 464 136 460.414063 136 456 L 136 440 C 136 435.585938 139.585938 432 144 432 C 148.414063 432 152 435.585938 152 440 L 152 456 C 152 460.414063 148.414063 464 144 464 Z "/>
<path style=" stroke:none;fill-rule:nonzero;fill:#8D6C9F;fill-opacity:1;" d="M 360 80 C 355.585938 80 352 76.414063 352 72 L 352 56 C 352 51.585938 355.585938 48 360 48 C 364.414063 48 368 51.585938 368 56 L 368 72 C 368 76.414063 364.414063 80 360 80 Z "/>
<path style=" stroke:none;fill-rule:nonzero;fill:#8D6C9F;fill-opacity:1;" d="M 320 80 C 315.585938 80 312 76.414063 312 72 L 312 56 C 312 51.585938 315.585938 48 320 48 C 324.414063 48 328 51.585938 328 56 L 328 72 C 328 76.414063 324.414063 80 320 80 Z "/>
<path style=" stroke:none;fill-rule:nonzero;fill:#8D6C9F;fill-opacity:1;" d="M 280 80 C 275.585938 80 272 76.414063 272 72 L 272 56 C 272 51.585938 275.585938 48 280 48 C 284.414063 48 288 51.585938 288 56 L 288 72 C 288 76.414063 284.414063 80 280 80 Z "/>
<path style=" stroke:none;fill-rule:nonzero;fill:#8D6C9F;fill-opacity:1;" d="M 240 80 C 235.585938 80 232 76.414063 232 72 L 232 56 C 232 51.585938 235.585938 48 240 48 C 244.414063 48 248 51.585938 248 56 L 248 72 C 248 76.414063 244.414063 80 240 80 Z "/>
<path style=" stroke:none;fill-rule:nonzero;fill:#8D6C9F;fill-opacity:1;" d="M 200 80 C 195.585938 80 192 76.414063 192 72 L 192 56 C 192 51.585938 195.585938 48 200 48 C 204.414063 48 208 51.585938 208 56 L 208 72 C 208 76.414063 204.414063 80 200 80 Z "/>
<path style=" stroke:none;fill-rule:nonzero;fill:#8D6C9F;fill-opacity:1;" d="M 160 80 C 155.585938 80 152 76.414063 152 72 L 152 56 C 152 51.585938 155.585938 48 160 48 C 164.414063 48 168 51.585938 168 56 L 168 72 C 168 76.414063 164.414063 80 160 80 Z "/>
<path style=" stroke:none;fill-rule:nonzero;fill:#8D6C9F;fill-opacity:1;" d="M 120 80 C 115.585938 80 112 76.414063 112 72 L 112 56 C 112 51.585938 115.585938 48 120 48 C 124.414063 48 128 51.585938 128 56 L 128 72 C 128 76.414063 124.414063 80 120 80 Z "/>
<path style=" stroke:none;fill-rule:nonzero;fill:#8D6C9F;fill-opacity:1;" d="M 104 464 C 99.585938 464 96 460.414063 96 456 L 96 440 C 96 435.585938 99.585938 432 104 432 C 108.414063 432 112 435.585938 112 440 L 112 456 C 112 460.414063 108.414063 464 104 464 Z "/>
<path style=" stroke:none;fill-rule:nonzero;fill:#8D6C9F;fill-opacity:1;" d="M 344 368 C 339.585938 368 336 364.414063 336 360 L 336 344 C 336 339.585938 339.585938 336 344 336 C 348.414063 336 352 339.585938 352 344 L 352 360 C 352 364.414063 348.414063 368 344 368 Z "/>
<path style=" stroke:none;fill-rule:nonzero;fill:#8D6C9F;fill-opacity:1;" d="M 304 368 C 299.585938 368 296 364.414063 296 360 L 296 344 C 296 339.585938 299.585938 336 304 336 C 308.414063 336 312 339.585938 312 344 L 312 360 C 312 364.414063 308.414063 368 304 368 Z "/>
<path style=" stroke:none;fill-rule:nonzero;fill:#8D6C9F;fill-opacity:1;" d="M 264 368 C 259.585938 368 256 364.414063 256 360 L 256 344 C 256 339.585938 259.585938 336 264 336 C 268.414063 336 272 339.585938 272 344 L 272 360 C 272 364.414063 268.414063 368 264 368 Z "/>
<path style=" stroke:none;fill-rule:nonzero;fill:#8D6C9F;fill-opacity:1;" d="M 224 368 C 219.585938 368 216 364.414063 216 360 L 216 344 C 216 339.585938 219.585938 336 224 336 C 228.414063 336 232 339.585938 232 344 L 232 360 C 232 364.414063 228.414063 368 224 368 Z "/>
<path style=" stroke:none;fill-rule:nonzero;fill:#8D6C9F;fill-opacity:1;" d="M 184 368 C 179.585938 368 176 364.414063 176 360 L 176 344 C 176 339.585938 179.585938 336 184 336 C 188.414063 336 192 339.585938 192 344 L 192 360 C 192 364.414063 188.414063 368 184 368 Z "/>
<path style=" stroke:none;fill-rule:nonzero;fill:#8D6C9F;fill-opacity:1;" d="M 144 368 C 139.585938 368 136 364.414063 136 360 L 136 344 C 136 339.585938 139.585938 336 144 336 C 148.414063 336 152 339.585938 152 344 L 152 360 C 152 364.414063 148.414063 368 144 368 Z "/>
<path style=" stroke:none;fill-rule:nonzero;fill:#8D6C9F;fill-opacity:1;" d="M 104 368 C 99.585938 368 96 364.414063 96 360 L 96 344 C 96 339.585938 99.585938 336 104 336 C 108.414063 336 112 339.585938 112 344 L 112 360 C 112 364.414063 108.414063 368 104 368 Z "/>
<path style=" stroke:none;fill-rule:nonzero;fill:#8D6C9F;fill-opacity:1;" d="M 70.015625 377.070313 C 67.726563 377.070313 65.457031 376.097656 63.871094 374.207031 L 53.609375 361.9375 C 50.777344 358.542969 51.222656 353.496094 54.609375 350.664063 C 58 347.824219 63.039063 348.289063 65.878906 351.664063 L 76.144531 363.9375 C 78.976563 367.328125 78.527344 372.375 75.144531 375.207031 C 73.648438 376.464844 71.824219 377.070313 70.015625 377.070313 Z "/>
<path style=" stroke:none;fill-rule:nonzero;fill:#8D6C9F;fill-opacity:1;" d="M 56 408 L 40 408 C 35.585938 408 32 404.414063 32 400 C 32 395.585938 35.585938 392 40 392 L 56 392 C 60.414063 392 64 395.585938 64 400 C 64 404.414063 60.414063 408 56 408 Z "/>
<path style=" stroke:none;fill-rule:nonzero;fill:#8D6C9F;fill-opacity:1;" d="M 59.742188 451.199219 C 57.9375 451.199219 56.113281 450.59375 54.617188 449.335938 C 51.230469 446.503906 50.777344 441.457031 53.617188 438.0625 L 63.878906 425.792969 C 66.710938 422.40625 71.753906 421.945313 75.152344 424.792969 C 78.535156 427.625 78.992188 432.671875 76.152344 436.0625 L 65.886719 448.335938 C 64.304688 450.222656 62.03125 451.199219 59.742188 451.199219 Z "/>
<path style=" stroke:none;fill-rule:nonzero;fill:#8D6C9F;fill-opacity:1;" d="M 388.328125 367.503906 C 383.910156 367.503906 380.328125 363.921875 380.328125 359.503906 L 380.328125 343.503906 C 380.328125 339.089844 383.910156 335.503906 388.328125 335.503906 C 392.742188 335.503906 396.328125 339.089844 396.328125 343.503906 L 396.328125 359.503906 C 396.328125 363.921875 392.742188 367.503906 388.328125 367.503906 Z "/>
<path style=" stroke:none;fill-rule:nonzero;fill:#8D6C9F;fill-opacity:1;" d="M 427.535156 356.007813 C 425.464844 356.007813 423.398438 355.207031 421.832031 353.617188 L 410.617188 342.207031 C 407.519531 339.054688 407.558594 333.992188 410.710938 330.894531 C 413.863281 327.792969 418.921875 327.832031 422.023438 330.992188 L 433.238281 342.398438 C 436.335938 345.550781 436.296875 350.617188 433.144531 353.710938 C 431.59375 355.246094 429.558594 356.007813 427.535156 356.007813 Z "/>
<path style=" stroke:none;fill-rule:nonzero;fill:#8D6C9F;fill-opacity:1;" d="M 439.503906 316.855469 L 423.503906 316.855469 C 419.089844 316.855469 415.503906 313.273438 415.503906 308.855469 C 415.503906 304.441406 419.089844 300.855469 423.503906 300.855469 L 439.503906 300.855469 C 443.921875 300.855469 447.503906 304.441406 447.503906 308.855469 C 447.503906 313.273438 443.921875 316.855469 439.503906 316.855469 Z "/>
<path style=" stroke:none;fill-rule:nonzero;fill:#8D6C9F;fill-opacity:1;" d="M 439.503906 280.832031 L 423.503906 280.832031 C 419.089844 280.832031 415.503906 277.246094 415.503906 272.832031 C 415.503906 268.414063 419.089844 264.832031 423.503906 264.832031 L 439.503906 264.832031 C 443.921875 264.832031 447.503906 268.414063 447.503906 272.832031 C 447.503906 277.246094 443.921875 280.832031 439.503906 280.832031 Z "/>
<path style=" stroke:none;fill-rule:nonzero;fill:#8D6C9F;fill-opacity:1;" d="M 399 80 C 394.585938 80 391 76.414063 391 72 L 391 56 C 391 51.585938 394.585938 48 399 48 C 403.414063 48 407 51.585938 407 56 L 407 72 C 407 76.414063 403.414063 80 399 80 Z "/>
<path style=" stroke:none;fill-rule:nonzero;fill:#8D6C9F;fill-opacity:1;" d="M 422.191406 94.863281 C 419.046875 94.863281 416.0625 93 414.792969 89.910156 C 413.105469 85.824219 415.046875 81.152344 419.136719 79.464844 L 433.929688 73.359375 C 438.007813 71.671875 442.6875 73.625 444.375 77.703125 C 446.0625 81.792969 444.121094 86.464844 440.03125 88.152344 L 425.238281 94.257813 C 424.238281 94.671875 423.207031 94.863281 422.191406 94.863281 Z "/>
<path style=" stroke:none;fill-rule:nonzero;fill:#8D6C9F;fill-opacity:1;" d="M 440 130.246094 L 424 130.246094 C 419.585938 130.246094 416 126.664063 416 122.246094 C 416 117.832031 419.585938 114.246094 424 114.246094 L 440 114.246094 C 444.414063 114.246094 448 117.832031 448 122.246094 C 448 126.664063 444.414063 130.246094 440 130.246094 Z "/>
<path style=" stroke:none;fill-rule:nonzero;fill:#8D6C9F;fill-opacity:1;" d="M 440 169 L 424 169 C 419.585938 169 416 165.414063 416 161 C 416 156.585938 419.585938 153 424 153 L 440 153 C 444.414063 153 448 156.585938 448 161 C 448 165.414063 444.414063 169 440 169 Z "/>
</g>
</svg>
